<svg width="32" height="22" viewBox="0 0 32 22" fill="none" xmlns="http://www.w3.org/2000/svg">
<path d="M26.8971 10.0229C27.0646 9.44163 27.1171 8.84143 27.1171 8.25162C27.1171 4.25303 23.8641 1 19.8655 1C18.2878 1 16.7878 1.49815 15.5278 2.44074C14.3101 3.35149 13.3918 4.649 12.9419 6.09459C12.927 6.14243 12.8758 6.2525 12.6686 6.21809C12.6503 6.21505 12.6311 6.21553 12.6115 6.21421C12.5434 6.20985 12.4696 6.20612 12.3933 6.20612C10.0219 6.20612 7.90629 7.73962 7.09544 10.0334C7.08339 10.0675 7.04642 10.1479 6.94854 10.1289C6.93857 10.127 6.92867 10.1248 6.9187 10.1229C6.55935 10.0508 6.19085 10.0144 5.8234 10.0144C2.74517 10.0144 0.240967 12.5187 0.240967 15.5969C0.240967 18.6751 2.74517 21.1793 5.82326 21.1793H25.293C28.3713 21.1793 30.8755 18.6751 30.8755 15.5969C30.8755 13.1833 29.2956 11.0247 27.0119 10.2858C26.9556 10.2676 26.8378 10.2287 26.8971 10.0229ZM25.293 20.1409H5.82326C3.31781 20.1409 1.27937 18.1026 1.27937 15.5969C1.27937 13.0913 3.31774 11.0528 5.82326 11.0528C6.13069 11.0528 6.43882 11.0842 6.73892 11.146C6.83694 11.1662 6.93545 11.1764 7.03154 11.1764C7.51772 11.1764 7.89667 10.9103 8.04523 10.4646C8.68696 8.53857 10.4342 7.24451 12.3932 7.24451C12.4563 7.24451 12.5254 7.24915 12.5985 7.25414C12.678 7.25954 12.7604 7.26507 12.8486 7.2659L12.867 7.26597C13.4687 7.26597 13.8251 6.989 13.926 6.44273C13.9289 6.42722 13.9311 6.41234 13.9334 6.40293C14.746 3.79232 17.13 2.0384 19.8655 2.0384C23.2915 2.0384 26.0787 4.82567 26.0787 8.25162C26.0787 8.83956 25.9926 9.43443 25.8227 10.0196C25.7401 10.3046 25.7588 10.558 25.8785 10.773C26.0564 11.0925 26.3764 11.1818 26.5302 11.2247L26.5545 11.2315C28.4873 11.7888 29.8372 13.5839 29.8372 15.5969C29.8371 18.1025 27.7986 20.1409 25.293 20.1409Z" fill="#2A2996" stroke="#2A2996" stroke-width="0.4"/>
<path d="M13.3497 11.3618C13.0519 11.2657 12.7064 11.2129 12.3769 11.2129C10.8137 11.2129 9.72192 12.2927 9.72192 13.8387C9.72192 15.3515 10.715 16.3679 12.193 16.3679C12.7819 16.3679 13.2097 16.2404 13.4123 16.1643C13.4816 16.1384 13.6653 16.0693 13.6393 15.7836L13.5686 15.4667C13.5371 15.3205 13.4402 15.2333 13.3096 15.2333C13.2526 15.2333 13.2013 15.2505 13.1676 15.2634C12.9996 15.3278 12.7318 15.4134 12.3478 15.4134C11.458 15.4134 10.8602 14.765 10.8602 13.8C10.8602 12.8081 11.4556 12.1672 12.3768 12.1672C12.6679 12.1672 12.924 12.2106 13.1378 12.2961L13.1489 12.3006C13.1827 12.3146 13.2337 12.3358 13.2937 12.3358C13.3646 12.3358 13.4924 12.3054 13.5522 12.1024L13.6478 11.7776L13.6514 11.7621C13.6817 11.5878 13.5632 11.4307 13.3497 11.3618Z" fill="#2A2996"/>
<path d="M16.7372 11.1934C15.2881 11.1934 14.2759 12.2732 14.2759 13.8193C14.2759 15.3197 15.2562 16.3677 16.6598 16.3677C17.8499 16.3677 19.1308 15.546 19.1308 13.7418C19.1308 12.2412 18.1465 11.1934 16.7372 11.1934ZM16.6986 15.4519C15.9544 15.4519 15.4142 14.753 15.4142 13.7901C15.4142 12.9533 15.8173 12.109 16.7179 12.109C17.7184 12.109 17.9829 13.196 17.9829 13.7708C17.9828 14.7449 17.4428 15.4519 16.6986 15.4519Z" fill="#2A2996"/>
<path d="M22.8567 15.535H21.832C21.6502 15.535 21.7401 15.4465 21.7848 15.4027C22.5872 14.6186 23.1816 13.9303 23.1816 13.0815C23.1816 12.3507 22.7071 11.6133 21.6467 11.6133C21.2316 11.6133 20.8316 11.7301 20.49 11.9512C20.2773 12.0889 20.1973 12.2906 20.2845 12.4668L20.3702 12.6567L20.3764 12.6691C20.4274 12.7645 20.5211 12.8214 20.6271 12.8214C20.738 12.8214 20.8301 12.7616 20.8923 12.7212C21.1022 12.5847 21.3156 12.5155 21.5267 12.5155C21.9658 12.5155 22.1793 12.7246 22.1793 13.1528C22.1737 13.7124 21.719 14.2352 20.6338 15.2683C20.5826 15.3123 20.2832 15.5716 20.1498 15.7407C20.0808 15.8281 20.0825 15.9397 20.0839 16.038L20.0843 16.0774C20.0843 16.3136 20.2863 16.4372 20.4858 16.4372H22.8525C22.8676 16.4388 22.8895 16.4405 22.9152 16.4405C23.173 16.4405 23.2884 16.2758 23.2884 16.1125V15.9048C23.2884 15.6646 23.0722 15.5369 22.8567 15.535Z" fill="#2A2996"/>
</svg>
