<svg width="51" height="43" viewBox="0 0 51 43" fill="none" xmlns="http://www.w3.org/2000/svg">
<path d="M14.3529 6.96539C14.3529 6.32636 14.8709 5.80842 15.5099 5.80842H42.5581C42.8954 5.80842 43.2159 5.95574 43.4357 6.21143C43.6555 6.46725 43.7527 6.80637 43.7018 7.13984L42.5462 14.7189C42.4589 15.2915 41.9658 15.7017 41.4039 15.7017C41.3459 15.7017 41.2872 15.6975 41.2281 15.6883C40.5963 15.5921 40.1623 15.0019 40.2586 14.3702L41.2112 8.12237H15.5099C14.8709 8.12237 14.3529 7.6043 14.3529 6.96539ZM23.1368 26.6894H12.8833L8.60841 1.73599C8.51328 1.18051 8.03172 0.774414 7.46802 0.774414H1.15698C0.517939 0.774414 0 1.29235 0 1.93139C0 2.57043 0.517939 3.08837 1.15698 3.08837H6.49243L10.7673 28.0418C10.8639 28.6056 11.353 29.0036 11.9063 29.0036C11.9711 29.0035 12.037 28.9981 12.103 28.9868C12.1076 28.9859 12.1121 28.9851 12.1167 28.9842C12.1849 28.9968 12.2552 29.0032 12.3269 29.0032H23.1368C23.7758 29.0032 24.2938 28.4853 24.2938 27.8462C24.2938 27.2072 23.7758 26.6894 23.1368 26.6894ZM20.9005 34.8768V36.9299C20.9005 38.8597 19.3305 40.4298 17.4007 40.4298C15.4708 40.4298 13.9008 38.8597 13.9008 36.9299V34.8768C13.9008 32.947 15.4707 31.3769 17.4004 31.3769C19.3304 31.3769 20.9005 32.947 20.9005 34.8768ZM18.5866 34.8768C18.5866 34.2228 18.0546 33.6909 17.4007 33.6909H17.4004C16.7467 33.6909 16.2148 34.2228 16.2148 34.8768V36.9299C16.2148 37.5837 16.7467 38.1158 17.4004 38.1158C18.0545 38.1158 18.5866 37.5837 18.5866 36.9299V34.8768ZM50.8401 24.0858C50.1573 29.5706 47.3796 34.4614 43.0182 37.857C39.3478 40.7146 34.9255 42.2255 30.3473 42.2255C29.4854 42.2255 28.6182 42.1719 27.7492 42.0637C27.0223 41.973 26.2896 41.8418 25.5706 41.6738C25.0881 41.561 24.7309 41.1535 24.6824 40.6604C24.5324 39.1337 24.5526 37.5848 24.7428 36.0568C26.1527 24.734 36.5114 16.6683 47.8341 18.0785C48.5617 18.1693 49.2945 18.3005 50.0126 18.4684C50.4949 18.5813 50.8519 18.9886 50.9005 19.4814C51.051 21.0074 51.0307 22.5565 50.8401 24.0858ZM48.661 20.5485C48.2905 20.4793 47.9182 20.4212 47.5477 20.3749C37.4922 19.1233 28.2911 26.2861 27.0389 36.3428C26.9674 36.9164 26.9231 37.4931 26.9055 38.0703L37.49 28.797C37.9704 28.376 38.7015 28.4241 39.1226 28.9049C39.5436 29.3854 39.4954 30.1165 39.0148 30.5375L28.4283 39.8123C33.1651 40.3012 37.8269 38.9658 41.5964 36.0311C45.47 33.0152 47.9374 28.6713 48.5436 23.7998C48.6785 22.7203 48.7175 21.6302 48.661 20.5485Z" fill="#01005B"/>
</svg>
