<svg width="23" height="23" viewBox="0 0 23 23" fill="none" xmlns="http://www.w3.org/2000/svg">
<path d="M11.5 1.5V22" stroke="#15005B" stroke-width="1.1" stroke-miterlimit="10" stroke-linecap="round" stroke-linejoin="round"/>
<path d="M11.4999 17.2694C8.4486 17.2694 5.98071 14.8015 5.98071 11.7502C5.98071 8.69884 8.4486 6.23096 11.4999 6.23096" stroke="#15005B" stroke-width="1.1" stroke-miterlimit="10" stroke-linecap="round" stroke-linejoin="round"/>
<path d="M4.25391 4.50439L5.92545 6.17593" stroke="#15005B" stroke-width="1.1" stroke-miterlimit="10" stroke-linecap="round" stroke-linejoin="round"/>
<path d="M1.25 11.75H3.61538" stroke="#15005B" stroke-width="1.1" stroke-miterlimit="10" stroke-linecap="round" stroke-linejoin="round"/>
<path d="M4.25391 18.9962L5.92545 17.3247" stroke="#15005B" stroke-width="1.1" stroke-miterlimit="10" stroke-linecap="round" stroke-linejoin="round"/>
<path d="M11.5 9.03C12.4462 7.35846 14.2438 6.23096 16.3017 6.23096C16.4279 6.23096 16.5462 6.23884 16.6723 6.24673C15.3556 6.94057 14.4646 8.32038 14.4646 9.90519C14.4646 12.1917 16.3175 14.0446 18.604 14.0446C19.8656 14.0446 20.9931 13.4769 21.75 12.586C21.34 15.2431 19.0613 17.2694 16.3017 17.2694C14.2438 17.2694 12.4462 16.1419 11.5 14.4704" stroke="#15005B" stroke-width="1.1" stroke-miterlimit="10" stroke-linecap="round" stroke-linejoin="round"/>
</svg>
