<svg width="24" height="31" viewBox="0 0 24 31" fill="none" xmlns="http://www.w3.org/2000/svg">
<path d="M12.5165 0.305368C12.3219 0.109133 12.0607 -0.00286684 11.7805 5.58086e-05C11.5042 0.000995231 11.2398 0.112682 11.0466 0.31017C10.6176 0.748671 0.539062 11.1468 0.539062 19.7561C0.539062 25.9565 5.58355 31.001 11.784 31.001C17.9844 31.001 23.0288 25.9565 23.0288 19.7561C23.0288 11.0068 12.9458 0.738129 12.5165 0.305368ZM11.784 28.9377C6.72109 28.9377 2.60235 24.8189 2.60235 19.7561C2.60235 13.2493 9.49333 5.08192 11.7883 2.54255C14.0869 5.05885 20.9657 13.1434 20.9657 19.7561C20.9656 24.8189 16.8468 28.9377 11.784 28.9377Z" fill="#2A2996"/>
<path d="M8.4502 16.4453C8.25094 16.4453 8.07913 16.5191 7.95356 16.6587C7.83175 16.7939 7.76996 16.9868 7.76996 17.2319V18.3796H6.11605V17.2319C6.11605 16.9835 6.05238 16.7891 5.9267 16.6543C5.79905 16.5175 5.62599 16.4453 5.4261 16.4453C5.22151 16.4453 5.04803 16.5197 4.92444 16.6606C4.80597 16.7956 4.74585 16.9879 4.74585 17.232V20.9556C4.74585 21.1999 4.8066 21.3928 4.92622 21.5286C5.05095 21.6705 5.22381 21.7454 5.4261 21.7454C5.624 21.7454 5.79654 21.6726 5.92514 21.5348C6.05175 21.3991 6.11605 21.2042 6.11605 20.9556V19.5725H7.76996V20.9556C7.76996 21.1999 7.83071 21.3928 7.95033 21.5286C8.07506 21.6705 8.24791 21.7454 8.4502 21.7454C8.64811 21.7454 8.82065 21.6726 8.94925 21.5348C9.07586 21.3991 9.14016 21.2042 9.14016 20.9556V17.232C9.14016 16.9836 9.07649 16.7892 8.95081 16.6544C8.82315 16.5175 8.65009 16.4453 8.4502 16.4453Z" fill="#2A2996"/>
<path d="M12.7489 23.5081C12.6493 23.4304 12.515 23.3909 12.3493 23.3909H11.6121C11.6773 23.3315 11.7613 23.2589 11.8694 23.1706C12.1042 22.9786 12.2673 22.8414 12.368 22.7509C12.4803 22.65 12.59 22.5118 12.6942 22.34C12.8074 22.1532 12.8649 21.9434 12.8649 21.7166C12.8649 21.5702 12.8372 21.4268 12.7824 21.2905C12.7279 21.1545 12.6503 21.0328 12.5518 20.9288C12.4532 20.8245 12.3369 20.7412 12.2039 20.6804C12.0132 20.5956 11.7838 20.5527 11.5223 20.5527C11.3031 20.5527 11.1068 20.5866 10.9389 20.6531C10.7693 20.7205 10.6258 20.8116 10.5122 20.924C10.3993 21.0361 10.3128 21.1637 10.255 21.3032C10.1975 21.4424 10.1684 21.5798 10.1684 21.712C10.1684 21.8907 10.2424 22.0022 10.3045 22.064C10.3934 22.1529 10.5096 22.2 10.6405 22.2C10.829 22.2 10.939 22.1142 10.9982 22.0419C11.0591 21.9676 11.1102 21.87 11.1548 21.7435C11.1946 21.6298 11.2098 21.6002 11.2096 21.6002H11.2095C11.2861 21.4829 11.3784 21.4305 11.5086 21.4305C11.5696 21.4305 11.6236 21.4435 11.6737 21.4702C11.721 21.4954 11.7572 21.5296 11.7844 21.5746C11.8116 21.6195 11.8246 21.6703 11.8246 21.7302C11.8246 21.7906 11.8095 21.8526 11.7785 21.9196C11.7443 21.9934 11.6926 22.0677 11.6246 22.1406C11.5511 22.2194 11.4567 22.2999 11.3475 22.3771C11.2675 22.431 11.1449 22.5344 10.9728 22.693C10.8067 22.8457 10.6187 23.0308 10.4125 23.245C10.3474 23.3141 10.2908 23.4026 10.2397 23.5155C10.1857 23.6347 10.1594 23.734 10.1594 23.8195C10.1594 23.9599 10.2139 24.0878 10.3169 24.1894C10.4207 24.2922 10.5597 24.3442 10.73 24.3442H12.4159C12.5748 24.3442 12.7009 24.2965 12.7905 24.2027C12.8768 24.1127 12.9223 23.9976 12.9223 23.8699C12.9221 23.7215 12.862 23.5965 12.7489 23.5081Z" fill="#2A2996"/>
<path d="M18.2039 17.7065C18.0057 17.3041 17.709 16.989 17.3225 16.7702C16.9414 16.5546 16.4825 16.4453 15.9588 16.4453C15.5731 16.4453 15.2222 16.5072 14.9154 16.6291C14.6042 16.7528 14.3361 16.9344 14.1183 17.1689C13.9016 17.4019 13.7345 17.6869 13.6214 18.0159C13.5102 18.3391 13.4539 18.6978 13.4539 19.0824C13.4539 19.4572 13.5077 19.8118 13.6141 20.1363C13.7226 20.4678 13.8861 20.7563 14.1001 20.9937C14.3157 21.2329 14.5873 21.4205 14.9072 21.5511C15.223 21.6799 15.5833 21.7453 15.9782 21.7453C16.3748 21.7453 16.7337 21.6818 17.0451 21.5562C17.361 21.4288 17.6317 21.2418 17.8497 21.0001C18.0657 20.7605 18.2298 20.4745 18.3373 20.1498C18.4427 19.8314 18.4961 19.4744 18.4961 19.0888C18.4959 18.565 18.3977 18.1 18.2039 17.7065ZM16.9506 19.9384C16.846 20.1585 16.7121 20.3152 16.5412 20.4172C16.3668 20.5213 16.1805 20.5719 15.9715 20.5719C15.81 20.5719 15.6608 20.542 15.5279 20.4832C15.3965 20.425 15.2777 20.3351 15.1749 20.2161C15.0705 20.0956 14.9878 19.9386 14.9289 19.7496C14.8677 19.5536 14.8367 19.329 14.8367 19.0825C14.8367 18.8383 14.8676 18.6169 14.9285 18.4242C14.9877 18.2376 15.0676 18.0844 15.1662 17.9685C15.2639 17.8538 15.377 17.769 15.5119 17.709C15.6471 17.6492 15.7974 17.6188 15.9587 17.6188C16.1898 17.6188 16.3876 17.6723 16.5631 17.7822C16.7363 17.8908 16.867 18.0492 16.9627 18.266C17.0624 18.4923 17.1128 18.7669 17.1128 19.0824C17.1128 19.4237 17.0582 19.7118 16.9506 19.9384Z" fill="#2A2996"/>
</svg>
