<svg width="27" height="21" viewBox="0 0 27 21" fill="none" xmlns="http://www.w3.org/2000/svg">
<path d="M8.03574 3.83777C8.03574 3.54485 8.28964 3.30744 8.60289 3.30744H21.8618C22.0271 3.30744 22.1842 3.37497 22.292 3.49217C22.3998 3.60943 22.4474 3.76488 22.4224 3.91773L21.856 7.39177C21.8132 7.65422 21.5715 7.84225 21.296 7.84225C21.2676 7.84225 21.2388 7.8403 21.2098 7.83612C20.9002 7.79199 20.6874 7.52146 20.7346 7.2319L21.2016 4.36809H8.60289C8.28964 4.36809 8.03574 4.13062 8.03574 3.83777ZM12.3416 12.8787H7.31534L5.21981 1.44076C5.17318 1.18614 4.93712 1 4.66079 1H1.56714C1.25389 1 1 1.23741 1 1.53032C1 1.82324 1.25389 2.06065 1.56714 2.06065H4.18256L6.2781 13.4986C6.32543 13.757 6.5652 13.9394 6.83642 13.9394C6.86818 13.9394 6.90051 13.9369 6.93284 13.9317C6.93511 13.9313 6.93731 13.931 6.93958 13.9306C6.97298 13.9363 7.00745 13.9393 7.04261 13.9393H12.3416C12.6548 13.9393 12.9087 13.7019 12.9087 13.4089C12.9087 13.116 12.6548 12.8787 12.3416 12.8787ZM11.2453 16.6316V17.5726C11.2453 18.4572 10.4757 19.1769 9.52973 19.1769C8.58373 19.1769 7.81412 18.4572 7.81412 17.5726V16.6316C7.81412 15.747 8.58367 15.0273 9.5296 15.0273C10.4757 15.0273 11.2453 15.747 11.2453 16.6316ZM10.1111 16.6316C10.1111 16.3318 9.85029 16.088 9.52973 16.088H9.5296C9.20917 16.088 8.94841 16.3318 8.94841 16.6316V17.5726C8.94841 17.8723 9.20917 18.1162 9.5296 18.1162C9.85023 18.1162 10.1111 17.8723 10.1111 17.5726V16.6316ZM25.9216 11.6853C25.5869 14.1994 24.2253 16.4412 22.0873 17.9976C20.2881 19.3075 18.1203 20 15.8761 20C15.4536 20 15.0285 19.9754 14.6025 19.9258C14.2462 19.8843 13.887 19.8241 13.5346 19.7471C13.2981 19.6954 13.123 19.5086 13.0992 19.2826C13.0257 18.5828 13.0356 17.8728 13.1288 17.1724C13.8199 11.9824 18.8978 8.2853 24.4481 8.93171C24.8048 8.97331 25.164 9.03347 25.516 9.11043C25.7524 9.16217 25.9274 9.34884 25.9512 9.57476C26.025 10.2742 26.015 10.9843 25.9216 11.6853ZM24.8534 10.0639C24.6718 10.0321 24.4893 10.0055 24.3077 9.98429C19.3785 9.41059 14.8682 12.6938 14.2544 17.3035C14.2193 17.5665 14.1976 17.8308 14.1889 18.0954L19.3774 13.8448C19.6129 13.6518 19.9713 13.6738 20.1777 13.8942C20.3841 14.1145 20.3605 14.4496 20.1249 14.6425L14.9354 18.8939C17.2574 19.118 19.5426 18.5058 21.3904 17.1606C23.2892 15.7783 24.4987 13.7871 24.7959 11.5542C24.862 11.0594 24.8811 10.5597 24.8534 10.0639Z" fill="#01005B" stroke="#01005B" stroke-width="0.6"/>
</svg>
