<svg width="21" height="17" viewBox="0 0 21 17" fill="none" xmlns="http://www.w3.org/2000/svg">
<path d="M6.34717 3.24034C6.34717 3.00909 6.54012 2.82167 6.7782 2.82167H16.855C16.9806 2.82167 17.1 2.87498 17.1819 2.9675C17.2638 3.06008 17.3 3.1828 17.2811 3.30347L16.8506 6.04613C16.818 6.25333 16.6343 6.40177 16.425 6.40177C16.4034 6.40177 16.3815 6.40024 16.3595 6.39694C16.1241 6.36209 15.9624 6.14852 15.9983 5.91992L16.3532 3.65902H6.7782C6.54012 3.65902 6.34717 3.47155 6.34717 3.24034ZM9.61959 10.3779H5.79966L4.20705 1.34797C4.17161 1.14696 3.99221 1 3.7822 1H1.43103C1.19296 1 1 1.18743 1 1.41868C1 1.64993 1.19296 1.83735 1.43103 1.83735H3.41875L5.01136 10.8673C5.04732 11.0713 5.22955 11.2154 5.43568 11.2154C5.45982 11.2153 5.48439 11.2134 5.50896 11.2093C5.51068 11.2089 5.51236 11.2087 5.51408 11.2083C5.53946 11.2129 5.56566 11.2152 5.59238 11.2152H9.61959C9.85767 11.2152 10.0506 11.0278 10.0506 10.7965C10.0506 10.5653 9.85767 10.3779 9.61959 10.3779ZM8.78646 13.3407V14.0837C8.78646 14.782 8.20155 15.3502 7.48259 15.3502C6.76364 15.3502 6.17873 14.782 6.17873 14.0837V13.3407C6.17873 12.6423 6.76359 12.0742 7.4825 12.0742C8.2015 12.0742 8.78646 12.6423 8.78646 13.3407ZM7.9244 13.3407C7.9244 13.1041 7.72622 12.9116 7.48259 12.9116H7.4825C7.23897 12.9116 7.04079 13.1041 7.04079 13.3407V14.0837C7.04079 14.3203 7.23897 14.5128 7.4825 14.5128C7.72617 14.5128 7.9244 14.3203 7.9244 14.0837V13.3407ZM19.9404 9.43574C19.6861 11.4206 18.6512 13.1904 17.0264 14.4192C15.659 15.4533 14.0115 16 12.3059 16C11.9848 16 11.6617 15.9806 11.3379 15.9414C11.0671 15.9086 10.7941 15.8611 10.5263 15.8003C10.3465 15.7595 10.2135 15.6121 10.1954 15.4336C10.1395 14.8812 10.147 14.3206 10.2179 13.7677C10.7431 9.6703 14.6023 6.75156 18.8205 7.26188C19.0916 7.29472 19.3646 7.34222 19.6321 7.40297C19.8118 7.44382 19.9448 7.59119 19.9629 7.76955C20.019 8.32174 20.0114 8.88234 19.9404 9.43574ZM19.1286 8.15571C18.9906 8.13063 18.8519 8.10961 18.7138 8.09286C14.9677 7.63994 11.5398 10.232 11.0733 13.8712C11.0467 14.0788 11.0302 14.2875 11.0236 14.4963L14.9669 11.1406C15.1458 10.9882 15.4182 11.0056 15.5751 11.1796C15.7319 11.3535 15.714 11.6181 15.5349 11.7704L11.5909 15.1267C13.3556 15.3036 15.0924 14.8204 16.4967 13.7584C17.9398 12.667 18.859 11.0951 19.0849 9.33224C19.1351 8.94161 19.1497 8.54712 19.1286 8.15571Z" fill="#01005B" stroke="#01005B" stroke-width="0.3"/>
</svg>
