<svg width="28" height="28" viewBox="0 0 28 28" fill="none" xmlns="http://www.w3.org/2000/svg">
<path d="M14 1V27" stroke="#15005B" stroke-width="1.6" stroke-miterlimit="10" stroke-linecap="round" stroke-linejoin="round"/>
<path d="M13.9998 20.9998C10.1298 20.9998 6.99976 17.8698 6.99976 13.9998C6.99976 10.1298 10.1298 6.99976 13.9998 6.99976" stroke="#15005B" stroke-width="1.6" stroke-miterlimit="10" stroke-linecap="round" stroke-linejoin="round"/>
<path d="M4.80981 4.81055L6.92982 6.93055" stroke="#15005B" stroke-width="1.6" stroke-miterlimit="10" stroke-linecap="round" stroke-linejoin="round"/>
<path d="M1 14H4" stroke="#15005B" stroke-width="1.6" stroke-miterlimit="10" stroke-linecap="round" stroke-linejoin="round"/>
<path d="M4.80981 23.1901L6.92982 21.0701" stroke="#15005B" stroke-width="1.6" stroke-miterlimit="10" stroke-linecap="round" stroke-linejoin="round"/>
<path d="M14 10.5498C15.2 8.42976 17.48 6.99976 20.09 6.99976C20.25 6.99976 20.4 7.00976 20.56 7.01976C18.89 7.89976 17.76 9.64976 17.76 11.6598C17.76 14.5598 20.11 16.9098 23.01 16.9098C24.61 16.9098 26.04 16.1898 27 15.0598C26.48 18.4298 23.59 20.9998 20.09 20.9998C17.48 20.9998 15.2 19.5698 14 17.4498" stroke="#15005B" stroke-width="1.6" stroke-miterlimit="10" stroke-linecap="round" stroke-linejoin="round"/>
</svg>
