<svg width="11" height="10" viewBox="0 0 11 10" fill="none" xmlns="http://www.w3.org/2000/svg">
<path d="M10.523 3.6786C10.5059 3.62578 10.4744 3.57881 10.4319 3.54301C10.3895 3.50722 10.3379 3.48403 10.2829 3.47609L7.13701 3.01897L5.72975 0.165568C5.70515 0.115857 5.66714 0.0740131 5.62002 0.0447576C5.5729 0.0155021 5.51854 0 5.46307 0C5.40761 0 5.35325 0.0155021 5.30613 0.0447576C5.25901 0.0740131 5.221 0.115857 5.19639 0.165568L3.78914 3.01682L0.643219 3.47394C0.588379 3.482 0.53688 3.50522 0.494526 3.54098C0.452172 3.57674 0.420647 3.62362 0.403504 3.67633C0.386362 3.72905 0.384283 3.7855 0.397502 3.83934C0.410722 3.89317 0.438714 3.94224 0.478323 3.98102L2.75464 6.20003L2.21752 9.33383C2.20853 9.38824 2.21483 9.44408 2.23572 9.49512C2.25662 9.54616 2.29128 9.59038 2.33585 9.62286C2.38042 9.65534 2.43313 9.6748 2.48811 9.67906C2.54309 9.68332 2.59818 9.67222 2.64722 9.64699L5.46334 8.16926L8.27732 9.6486C8.3264 9.67388 8.38154 9.68499 8.43658 9.68072C8.49162 9.67644 8.54439 9.65694 8.58898 9.62438C8.63357 9.59183 8.66822 9.54751 8.68907 9.49639C8.70991 9.44527 8.71613 9.38935 8.70701 9.3349L8.16989 6.20111L10.4467 3.98209C10.4864 3.94362 10.5146 3.89482 10.5281 3.84121C10.5416 3.78759 10.5398 3.73127 10.523 3.6786Z" fill="#FFB801"/>
</svg>
